<?xml version="1.0" encoding="UTF-8" standalone="no"?>
<svg width="860px" height="933px" viewBox="0 0 860 933" version="1.1" xmlns="http://www.w3.org/2000/svg" xmlns:xlink="http://www.w3.org/1999/xlink">
    <!-- Generator: Sketch 3.8.3 (29802) - http://www.bohemiancoding.com/sketch -->
    <title>T</title>
    <desc>Created with Sketch.</desc>
    <defs>
        <ellipse id="path-1" cx="424.982596" cy="867.481087" rx="54.6852605" ry="54.7060145"></ellipse>
    </defs>
    <g id="Page-1" stroke="none" stroke-width="1" fill="none" fill-rule="evenodd">
        <g id="iPad-Pro-Landscape" transform="translate(-253.000000, -46.000000)">
            <g id="T" transform="translate(258.000000, 51.000000)">
                <path d="M414.519564,755.196382 L414.519564,500.126536 L393.733876,85.9665942 L456.231316,85.9665942 L434.031704,500.126536 C434.031704,500.126536 428.842074,669.319453 434.031704,755.196382 C436.241944,791.77097 456.231316,867.481087 456.231316,867.481087 L393.733876,867.481087 L414.519564,755.196382 Z" id="Rectangle-1" fill="#777777"></path>
                <path d="M415.652737,351.748683 C415.652737,338.086424 410.261399,279.705988 410.062146,264.600659 C409.017965,185.441695 413.123599,110.244887 410.062146,17.6970294 C409.136261,-10.292502 416.956119,-41.6617319 415.652737,-67.5979509 C410.018442,-179.715768 393.733876,-265.714928 393.733876,-265.714928 L456.231316,-265.714928 C456.231316,-265.714928 431.241262,-179.211237 424.982596,-67.5979509 C424.141242,-52.5937436 437.436033,-1.37628515 437.132163,17.6970294 C435.618637,112.698279 438.840893,211.447138 437.132163,264.600659 C436.632894,280.131445 424.982596,337.667627 424.982596,351.748683 C424.982596,413.847417 456.231316,515.799565 456.231316,515.799565 L393.733876,515.799565 C393.733876,515.799565 415.652737,411.73849 415.652737,351.748683 Z" id="Rectangle-1" fill="#777777" transform="translate(424.982596, 125.042319) rotate(-90.000000) translate(-424.982596, -125.042319) "></path>
                <ellipse id="Oval-1" stroke="#7CAA7F" stroke-width="10" fill="#97D19B" cx="70.3096206" cy="125.042319" rx="70.3096206" ry="70.3363044"></ellipse>
                <ellipse id="Oval-1" stroke="#7CA97F" stroke-width="10" fill="#97D19B" cx="424.982596" cy="125.042319" rx="124.994881" ry="125.042319"></ellipse>
                <ellipse id="Oval-1" stroke="#7CA97F" stroke-width="10" fill="#97D19B" cx="779.655571" cy="125.042319" rx="70.3096206" ry="70.3363044"></ellipse>
                <mask id="mask-2" fill="white">
                    <use xlink:href="#path-1"></use>
                </mask>
                <use id="Oval-1" stroke="#BE6E6E" stroke-width="10" fill="#D1A197" xlink:href="#path-1"></use>
            </g>
        </g>
    </g>
</svg>